<svg xmlns="http://www.w3.org/2000/svg" xmlns:xlink="http://www.w3.org/1999/xlink" width="500" zoomAndPan="magnify" viewBox="0 0 375 374.999991" height="500" preserveAspectRatio="xMidYMid meet" version="1.0"><defs><g/><clipPath id="9d8f66ae2c"><path d="M 185 27.054688 L 220 27.054688 L 220 61 L 185 61 Z M 185 27.054688 " clip-rule="nonzero"/></clipPath><clipPath id="d101180cdf"><path d="M 264 86 L 278.734375 86 L 278.734375 101 L 264 101 Z M 264 86 " clip-rule="nonzero"/></clipPath><clipPath id="7b87f8c7c1"><path d="M 147.25 221 L 165 221 L 165 242 L 147.25 242 Z M 147.25 221 " clip-rule="nonzero"/></clipPath><clipPath id="954513f7d2"><path d="M 302 204 L 308.5 204 L 308.5 210 L 302 210 Z M 302 204 " clip-rule="nonzero"/></clipPath><clipPath id="338b98bde4"><path d="M 172 239 L 178 239 L 178 244.363281 L 172 244.363281 Z M 172 239 " clip-rule="nonzero"/></clipPath></defs><path fill="#94acff" d="M 149.855469 175.105469 C 151.285156 172.964844 152.507812 170.714844 153.515625 168.347656 C 158.699219 155.859375 169.683594 123.9375 149.734375 117.578125 C 124.800781 109.640625 73.226562 114.464844 90.210938 187.398438 C 107.195312 260.335938 154.078125 252.082031 166.894531 243.511719 C 179.710938 234.941406 181.851562 205.167969 160.972656 194.261719 C 145.285156 186.074219 147.683594 178.445312 149.855469 175.105469 Z M 149.855469 175.105469 " fill-opacity="1" fill-rule="nonzero"/><path fill="#94acff" d="M 163.816406 95.410156 C 163.816406 95.964844 163.789062 96.515625 163.738281 97.066406 C 163.683594 97.613281 163.601562 98.160156 163.492188 98.703125 C 163.386719 99.242188 163.253906 99.777344 163.09375 100.308594 C 162.929688 100.835938 162.746094 101.355469 162.535156 101.867188 C 162.324219 102.375 162.085938 102.875 161.828125 103.363281 C 161.566406 103.851562 161.28125 104.324219 160.976562 104.78125 C 160.667969 105.242188 160.339844 105.683594 159.992188 106.113281 C 159.640625 106.539062 159.269531 106.949219 158.878906 107.339844 C 158.488281 107.730469 158.078125 108.097656 157.652344 108.449219 C 157.226562 108.800781 156.78125 109.128906 156.324219 109.4375 C 155.863281 109.742188 155.390625 110.027344 154.90625 110.285156 C 154.417969 110.546875 153.917969 110.78125 153.410156 110.996094 C 152.898438 111.207031 152.378906 111.390625 151.851562 111.550781 C 151.320312 111.710938 150.785156 111.847656 150.246094 111.953125 C 149.703125 112.0625 149.15625 112.144531 148.609375 112.195312 C 148.058594 112.25 147.507812 112.277344 146.957031 112.277344 C 146.402344 112.277344 145.851562 112.25 145.304688 112.195312 C 144.753906 112.144531 144.207031 112.0625 143.667969 111.953125 C 143.125 111.847656 142.589844 111.710938 142.0625 111.550781 C 141.53125 111.390625 141.011719 111.207031 140.503906 110.996094 C 139.992188 110.78125 139.492188 110.546875 139.007812 110.285156 C 138.519531 110.027344 138.046875 109.742188 137.585938 109.4375 C 137.128906 109.128906 136.683594 108.800781 136.257812 108.449219 C 135.832031 108.097656 135.421875 107.730469 135.03125 107.339844 C 134.640625 106.949219 134.269531 106.539062 133.921875 106.113281 C 133.570312 105.683594 133.242188 105.242188 132.933594 104.78125 C 132.628906 104.324219 132.34375 103.851562 132.085938 103.363281 C 131.824219 102.875 131.589844 102.375 131.378906 101.867188 C 131.164062 101.355469 130.980469 100.835938 130.820312 100.308594 C 130.660156 99.777344 130.523438 99.242188 130.417969 98.703125 C 130.308594 98.160156 130.230469 97.613281 130.175781 97.066406 C 130.121094 96.515625 130.09375 95.964844 130.09375 95.410156 C 130.09375 94.859375 130.121094 94.308594 130.175781 93.757812 C 130.230469 93.207031 130.308594 92.664062 130.417969 92.121094 C 130.523438 91.578125 130.660156 91.042969 130.820312 90.515625 C 130.980469 89.988281 131.164062 89.46875 131.378906 88.957031 C 131.589844 88.445312 131.824219 87.949219 132.085938 87.460938 C 132.34375 86.972656 132.628906 86.5 132.933594 86.042969 C 133.242188 85.582031 133.570312 85.140625 133.921875 84.710938 C 134.269531 84.285156 134.640625 83.875 135.03125 83.484375 C 135.421875 83.09375 135.832031 82.722656 136.257812 82.375 C 136.683594 82.023438 137.128906 81.695312 137.585938 81.386719 C 138.046875 81.082031 138.519531 80.796875 139.007812 80.535156 C 139.492188 80.277344 139.992188 80.039062 140.503906 79.828125 C 141.011719 79.617188 141.53125 79.433594 142.0625 79.273438 C 142.589844 79.109375 143.125 78.976562 143.667969 78.871094 C 144.207031 78.761719 144.753906 78.679688 145.304688 78.625 C 145.851562 78.574219 146.402344 78.546875 146.957031 78.546875 C 147.507812 78.546875 148.058594 78.574219 148.609375 78.625 C 149.15625 78.679688 149.703125 78.761719 150.246094 78.871094 C 150.785156 78.976562 151.320312 79.109375 151.851562 79.273438 C 152.378906 79.433594 152.898438 79.617188 153.410156 79.828125 C 153.917969 80.039062 154.417969 80.277344 154.90625 80.535156 C 155.390625 80.796875 155.863281 81.082031 156.324219 81.386719 C 156.78125 81.695312 157.226562 82.023438 157.652344 82.375 C 158.078125 82.722656 158.488281 83.09375 158.878906 83.484375 C 159.269531 83.875 159.640625 84.285156 159.992188 84.710938 C 160.339844 85.140625 160.667969 85.582031 160.976562 86.042969 C 161.28125 86.5 161.566406 86.972656 161.828125 87.460938 C 162.085938 87.949219 162.324219 88.445312 162.535156 88.957031 C 162.746094 89.46875 162.929688 89.988281 163.09375 90.515625 C 163.253906 91.042969 163.386719 91.578125 163.492188 92.121094 C 163.601562 92.664062 163.683594 93.207031 163.738281 93.757812 C 163.789062 94.308594 163.816406 94.859375 163.816406 95.410156 Z M 163.816406 95.410156 " fill-opacity="1" fill-rule="nonzero"/><path fill="#94acff" d="M 127.476562 102.425781 C 127.476562 103.074219 127.414062 103.714844 127.285156 104.347656 C 127.160156 104.980469 126.972656 105.597656 126.726562 106.195312 C 126.476562 106.792969 126.175781 107.363281 125.816406 107.898438 C 125.457031 108.4375 125.046875 108.933594 124.589844 109.390625 C 124.132812 109.851562 123.636719 110.257812 123.097656 110.617188 C 122.558594 110.976562 121.992188 111.28125 121.394531 111.527344 C 120.796875 111.777344 120.179688 111.960938 119.546875 112.089844 C 118.914062 112.214844 118.273438 112.277344 117.625 112.277344 C 116.980469 112.277344 116.339844 112.214844 115.703125 112.089844 C 115.070312 111.960938 114.453125 111.777344 113.855469 111.527344 C 113.257812 111.28125 112.691406 110.976562 112.152344 110.617188 C 111.617188 110.257812 111.117188 109.851562 110.660156 109.390625 C 110.203125 108.933594 109.792969 108.4375 109.433594 107.898438 C 109.074219 107.363281 108.773438 106.792969 108.523438 106.195312 C 108.277344 105.597656 108.089844 104.980469 107.964844 104.347656 C 107.839844 103.714844 107.777344 103.074219 107.777344 102.425781 C 107.777344 101.777344 107.839844 101.136719 107.964844 100.503906 C 108.089844 99.867188 108.277344 99.253906 108.523438 98.65625 C 108.773438 98.058594 109.074219 97.488281 109.433594 96.953125 C 109.792969 96.414062 110.203125 95.917969 110.660156 95.457031 C 111.117188 95 111.617188 94.59375 112.152344 94.234375 C 112.691406 93.875 113.257812 93.570312 113.855469 93.324219 C 114.453125 93.074219 115.070312 92.890625 115.703125 92.761719 C 116.339844 92.636719 116.980469 92.574219 117.625 92.574219 C 118.273438 92.574219 118.914062 92.636719 119.546875 92.761719 C 120.179688 92.890625 120.796875 93.074219 121.394531 93.324219 C 121.992188 93.570312 122.558594 93.875 123.097656 94.234375 C 123.636719 94.59375 124.132812 95 124.589844 95.457031 C 125.046875 95.917969 125.457031 96.414062 125.816406 96.953125 C 126.175781 97.488281 126.476562 98.058594 126.726562 98.65625 C 126.972656 99.253906 127.160156 99.867188 127.285156 100.503906 C 127.414062 101.136719 127.476562 101.777344 127.476562 102.425781 Z M 127.476562 102.425781 " fill-opacity="1" fill-rule="nonzero"/><path fill="#94acff" d="M 107.777344 113.328125 C 107.777344 113.90625 107.71875 114.480469 107.605469 115.046875 C 107.492188 115.613281 107.328125 116.164062 107.105469 116.699219 C 106.882812 117.234375 106.613281 117.742188 106.292969 118.222656 C 105.96875 118.703125 105.605469 119.148438 105.195312 119.558594 C 104.789062 119.964844 104.34375 120.332031 103.863281 120.652344 C 103.378906 120.972656 102.875 121.246094 102.339844 121.464844 C 101.804688 121.6875 101.253906 121.855469 100.6875 121.96875 C 100.121094 122.082031 99.546875 122.136719 98.96875 122.136719 C 98.390625 122.136719 97.816406 122.082031 97.25 121.96875 C 96.683594 121.855469 96.132812 121.6875 95.597656 121.464844 C 95.066406 121.246094 94.558594 120.972656 94.078125 120.652344 C 93.59375 120.332031 93.152344 119.964844 92.742188 119.558594 C 92.332031 119.148438 91.96875 118.703125 91.648438 118.222656 C 91.324219 117.742188 91.054688 117.234375 90.832031 116.699219 C 90.613281 116.164062 90.445312 115.613281 90.332031 115.046875 C 90.21875 114.480469 90.164062 113.90625 90.164062 113.328125 C 90.164062 112.75 90.21875 112.175781 90.332031 111.609375 C 90.445312 111.042969 90.613281 110.492188 90.832031 109.957031 C 91.054688 109.421875 91.324219 108.914062 91.648438 108.433594 C 91.96875 107.953125 92.332031 107.507812 92.742188 107.097656 C 93.152344 106.691406 93.59375 106.324219 94.078125 106.003906 C 94.558594 105.683594 95.066406 105.410156 95.597656 105.191406 C 96.132812 104.96875 96.683594 104.800781 97.25 104.6875 C 97.816406 104.574219 98.390625 104.519531 98.96875 104.519531 C 99.546875 104.519531 100.121094 104.574219 100.6875 104.6875 C 101.253906 104.800781 101.804688 104.96875 102.339844 105.191406 C 102.875 105.410156 103.378906 105.683594 103.863281 106.003906 C 104.34375 106.324219 104.789062 106.691406 105.195312 107.097656 C 105.605469 107.507812 105.96875 107.953125 106.292969 108.433594 C 106.613281 108.914062 106.882812 109.421875 107.105469 109.957031 C 107.328125 110.492188 107.492188 111.042969 107.605469 111.609375 C 107.71875 112.175781 107.777344 112.75 107.777344 113.328125 Z M 107.777344 113.328125 " fill-opacity="1" fill-rule="nonzero"/><path fill="#94acff" d="M 93.28125 127.789062 C 93.28125 128.335938 93.226562 128.875 93.121094 129.410156 C 93.015625 129.945312 92.855469 130.46875 92.648438 130.972656 C 92.441406 131.476562 92.183594 131.953125 91.878906 132.410156 C 91.578125 132.863281 91.234375 133.28125 90.847656 133.667969 C 90.460938 134.054688 90.039062 134.398438 89.585938 134.703125 C 89.132812 135.007812 88.652344 135.261719 88.148438 135.472656 C 87.644531 135.679688 87.125 135.835938 86.589844 135.945312 C 86.054688 136.050781 85.515625 136.105469 84.96875 136.105469 C 84.421875 136.105469 83.882812 136.050781 83.347656 135.945312 C 82.8125 135.835938 82.292969 135.679688 81.789062 135.472656 C 81.285156 135.261719 80.804688 135.007812 80.351562 134.703125 C 79.898438 134.398438 79.476562 134.054688 79.089844 133.667969 C 78.707031 133.28125 78.359375 132.863281 78.058594 132.410156 C 77.753906 131.953125 77.5 131.476562 77.289062 130.972656 C 77.082031 130.46875 76.921875 129.945312 76.816406 129.410156 C 76.710938 128.875 76.65625 128.335938 76.65625 127.789062 C 76.65625 127.242188 76.710938 126.703125 76.816406 126.167969 C 76.921875 125.632812 77.082031 125.113281 77.289062 124.609375 C 77.5 124.105469 77.753906 123.625 78.058594 123.171875 C 78.359375 122.714844 78.707031 122.296875 79.089844 121.910156 C 79.476562 121.523438 79.898438 121.179688 80.351562 120.875 C 80.804688 120.574219 81.285156 120.316406 81.789062 120.109375 C 82.292969 119.898438 82.8125 119.742188 83.347656 119.636719 C 83.882812 119.527344 84.421875 119.476562 84.96875 119.476562 C 85.515625 119.476562 86.054688 119.527344 86.589844 119.636719 C 87.125 119.742188 87.644531 119.898438 88.148438 120.109375 C 88.652344 120.316406 89.132812 120.574219 89.585938 120.875 C 90.039062 121.179688 90.460938 121.523438 90.847656 121.910156 C 91.234375 122.296875 91.578125 122.714844 91.878906 123.171875 C 92.183594 123.625 92.441406 124.105469 92.648438 124.609375 C 92.855469 125.113281 93.015625 125.632812 93.121094 126.167969 C 93.226562 126.703125 93.28125 127.242188 93.28125 127.789062 Z M 93.28125 127.789062 " fill-opacity="1" fill-rule="nonzero"/><path fill="#94acff" d="M 84.96875 145.417969 C 84.96875 145.875 84.925781 146.328125 84.835938 146.773438 C 84.746094 147.222656 84.613281 147.65625 84.441406 148.078125 C 84.265625 148.5 84.050781 148.898438 83.796875 149.277344 C 83.546875 149.65625 83.257812 150.007812 82.933594 150.332031 C 82.613281 150.652344 82.261719 150.941406 81.882812 151.195312 C 81.503906 151.449219 81.101562 151.664062 80.683594 151.835938 C 80.261719 152.011719 79.828125 152.144531 79.378906 152.234375 C 78.933594 152.320312 78.480469 152.367188 78.023438 152.367188 C 77.566406 152.367188 77.117188 152.320312 76.667969 152.234375 C 76.222656 152.144531 75.789062 152.011719 75.367188 151.835938 C 74.945312 151.664062 74.542969 151.449219 74.164062 151.195312 C 73.785156 150.941406 73.4375 150.652344 73.113281 150.332031 C 72.789062 150.007812 72.503906 149.65625 72.25 149.277344 C 71.996094 148.898438 71.78125 148.5 71.609375 148.078125 C 71.433594 147.65625 71.300781 147.222656 71.210938 146.773438 C 71.125 146.328125 71.078125 145.875 71.078125 145.417969 C 71.078125 144.964844 71.125 144.511719 71.210938 144.0625 C 71.300781 143.617188 71.433594 143.183594 71.609375 142.761719 C 71.78125 142.339844 71.996094 141.9375 72.25 141.558594 C 72.503906 141.179688 72.789062 140.828125 73.113281 140.507812 C 73.4375 140.183594 73.785156 139.898438 74.164062 139.644531 C 74.542969 139.390625 74.945312 139.175781 75.367188 139 C 75.789062 138.828125 76.222656 138.695312 76.667969 138.605469 C 77.117188 138.515625 77.566406 138.472656 78.023438 138.472656 C 78.480469 138.472656 78.933594 138.515625 79.378906 138.605469 C 79.828125 138.695312 80.261719 138.828125 80.683594 139 C 81.101562 139.175781 81.503906 139.390625 81.882812 139.644531 C 82.261719 139.898438 82.613281 140.183594 82.933594 140.507812 C 83.257812 140.828125 83.546875 141.179688 83.796875 141.558594 C 84.050781 141.9375 84.265625 142.339844 84.441406 142.761719 C 84.613281 143.183594 84.746094 143.617188 84.835938 144.0625 C 84.925781 144.511719 84.96875 144.964844 84.96875 145.417969 Z M 84.96875 145.417969 " fill-opacity="1" fill-rule="nonzero"/><path fill="#f24d9a" d="M 199.847656 123.613281 C 198.414062 121.476562 197.195312 119.226562 196.1875 116.855469 C 191.007812 104.367188 180.015625 72.445312 199.972656 66.085938 C 224.902344 58.148438 276.476562 62.972656 259.492188 135.910156 C 242.507812 208.84375 195.609375 200.617188 182.828125 192.019531 C 170.050781 183.425781 167.871094 153.679688 188.753906 142.769531 C 204.414062 134.582031 202.023438 126.929688 199.847656 123.613281 Z M 199.847656 123.613281 " fill-opacity="1" fill-rule="nonzero"/><g clip-path="url(#9d8f66ae2c)"><path fill="#f24d9a" d="M 219.609375 43.921875 C 219.609375 44.472656 219.582031 45.023438 219.527344 45.574219 C 219.476562 46.125 219.394531 46.667969 219.285156 47.210938 C 219.179688 47.753906 219.042969 48.289062 218.882812 48.816406 C 218.722656 49.34375 218.539062 49.863281 218.328125 50.375 C 218.113281 50.886719 217.878906 51.382812 217.617188 51.871094 C 217.359375 52.359375 217.074219 52.832031 216.769531 53.292969 C 216.460938 53.75 216.132812 54.195312 215.78125 54.621094 C 215.433594 55.046875 215.0625 55.457031 214.671875 55.847656 C 214.28125 56.238281 213.871094 56.609375 213.445312 56.957031 C 213.019531 57.308594 212.574219 57.636719 212.117188 57.945312 C 211.65625 58.25 211.183594 58.535156 210.695312 58.796875 C 210.210938 59.054688 209.710938 59.292969 209.199219 59.503906 C 208.691406 59.714844 208.171875 59.902344 207.644531 60.0625 C 207.113281 60.222656 206.578125 60.355469 206.039062 60.464844 C 205.496094 60.570312 204.949219 60.652344 204.402344 60.707031 C 203.851562 60.761719 203.300781 60.789062 202.746094 60.789062 C 202.195312 60.789062 201.644531 60.761719 201.09375 60.707031 C 200.546875 60.652344 200 60.570312 199.457031 60.464844 C 198.917969 60.355469 198.382812 60.222656 197.851562 60.0625 C 197.324219 59.902344 196.804688 59.714844 196.296875 59.503906 C 195.785156 59.292969 195.285156 59.054688 194.800781 58.796875 C 194.3125 58.535156 193.839844 58.25 193.378906 57.945312 C 192.921875 57.636719 192.476562 57.308594 192.050781 56.957031 C 191.625 56.609375 191.214844 56.238281 190.824219 55.847656 C 190.433594 55.457031 190.0625 55.046875 189.714844 54.621094 C 189.363281 54.195312 189.035156 53.75 188.726562 53.292969 C 188.421875 52.832031 188.136719 52.359375 187.875 51.871094 C 187.617188 51.382812 187.378906 50.886719 187.167969 50.375 C 186.957031 49.863281 186.773438 49.34375 186.613281 48.816406 C 186.453125 48.289062 186.316406 47.753906 186.210938 47.210938 C 186.101562 46.667969 186.019531 46.125 185.96875 45.574219 C 185.914062 45.023438 185.886719 44.472656 185.886719 43.921875 C 185.886719 43.367188 185.914062 42.816406 185.96875 42.269531 C 186.019531 41.71875 186.101562 41.171875 186.210938 40.628906 C 186.316406 40.089844 186.453125 39.554688 186.613281 39.023438 C 186.773438 38.496094 186.957031 37.976562 187.167969 37.464844 C 187.378906 36.957031 187.617188 36.457031 187.875 35.96875 C 188.136719 35.484375 188.421875 35.007812 188.726562 34.550781 C 189.035156 34.089844 189.363281 33.648438 189.714844 33.222656 C 190.0625 32.792969 190.433594 32.386719 190.824219 31.996094 C 191.214844 31.605469 191.625 31.234375 192.050781 30.882812 C 192.476562 30.53125 192.921875 30.203125 193.378906 29.898438 C 193.839844 29.589844 194.3125 29.304688 194.800781 29.046875 C 195.285156 28.785156 195.785156 28.550781 196.296875 28.339844 C 196.804688 28.125 197.324219 27.941406 197.851562 27.78125 C 198.382812 27.621094 198.917969 27.484375 199.457031 27.378906 C 200 27.269531 200.546875 27.191406 201.09375 27.136719 C 201.644531 27.082031 202.195312 27.054688 202.746094 27.054688 C 203.300781 27.054688 203.851562 27.082031 204.402344 27.136719 C 204.949219 27.191406 205.496094 27.269531 206.039062 27.378906 C 206.578125 27.484375 207.113281 27.621094 207.644531 27.78125 C 208.171875 27.941406 208.691406 28.125 209.199219 28.339844 C 209.710938 28.550781 210.210938 28.785156 210.695312 29.046875 C 211.183594 29.304688 211.65625 29.589844 212.117188 29.898438 C 212.574219 30.203125 213.019531 30.53125 213.445312 30.882812 C 213.871094 31.234375 214.28125 31.605469 214.671875 31.996094 C 215.0625 32.386719 215.433594 32.792969 215.78125 33.222656 C 216.132812 33.648438 216.460938 34.089844 216.769531 34.550781 C 217.074219 35.007812 217.359375 35.484375 217.617188 35.96875 C 217.878906 36.457031 218.113281 36.957031 218.328125 37.464844 C 218.539062 37.976562 218.722656 38.496094 218.882812 39.023438 C 219.042969 39.554688 219.179688 40.089844 219.285156 40.628906 C 219.394531 41.171875 219.476562 41.71875 219.527344 42.269531 C 219.582031 42.816406 219.609375 43.367188 219.609375 43.921875 Z M 219.609375 43.921875 " fill-opacity="1" fill-rule="nonzero"/></g><path fill="#f24d9a" d="M 241.921875 50.933594 C 241.921875 51.582031 241.859375 52.222656 241.734375 52.855469 C 241.605469 53.492188 241.417969 54.109375 241.171875 54.707031 C 240.925781 55.304688 240.621094 55.871094 240.261719 56.410156 C 239.902344 56.945312 239.496094 57.445312 239.035156 57.902344 C 238.578125 58.359375 238.082031 58.769531 237.542969 59.128906 C 237.007812 59.488281 236.4375 59.789062 235.839844 60.039062 C 235.242188 60.285156 234.628906 60.472656 233.992188 60.597656 C 233.359375 60.722656 232.71875 60.789062 232.070312 60.789062 C 231.425781 60.789062 230.785156 60.722656 230.152344 60.597656 C 229.515625 60.472656 228.898438 60.285156 228.300781 60.039062 C 227.707031 59.789062 227.136719 59.488281 226.601562 59.128906 C 226.0625 58.769531 225.5625 58.359375 225.105469 57.902344 C 224.648438 57.445312 224.242188 56.945312 223.882812 56.410156 C 223.523438 55.871094 223.21875 55.304688 222.972656 54.707031 C 222.722656 54.109375 222.539062 53.492188 222.410156 52.855469 C 222.285156 52.222656 222.222656 51.582031 222.222656 50.933594 C 222.222656 50.289062 222.285156 49.648438 222.410156 49.011719 C 222.539062 48.378906 222.722656 47.761719 222.972656 47.164062 C 223.21875 46.566406 223.523438 46 223.882812 45.460938 C 224.242188 44.921875 224.648438 44.425781 225.105469 43.96875 C 225.5625 43.511719 226.0625 43.101562 226.601562 42.742188 C 227.136719 42.382812 227.707031 42.078125 228.300781 41.832031 C 228.898438 41.585938 229.515625 41.398438 230.152344 41.273438 C 230.785156 41.144531 231.425781 41.082031 232.070312 41.082031 C 232.71875 41.082031 233.359375 41.144531 233.992188 41.273438 C 234.628906 41.398438 235.242188 41.585938 235.839844 41.832031 C 236.4375 42.078125 237.007812 42.382812 237.542969 42.742188 C 238.082031 43.101562 238.578125 43.511719 239.035156 43.96875 C 239.496094 44.425781 239.902344 44.921875 240.261719 45.460938 C 240.621094 46 240.925781 46.566406 241.171875 47.164062 C 241.417969 47.761719 241.605469 48.378906 241.734375 49.011719 C 241.859375 49.648438 241.921875 50.289062 241.921875 50.933594 Z M 241.921875 50.933594 " fill-opacity="1" fill-rule="nonzero"/><path fill="#f24d9a" d="M 259.535156 61.835938 C 259.535156 62.414062 259.476562 62.988281 259.367188 63.554688 C 259.253906 64.125 259.085938 64.675781 258.863281 65.207031 C 258.644531 65.742188 258.371094 66.25 258.050781 66.730469 C 257.730469 67.210938 257.363281 67.65625 256.957031 68.066406 C 256.546875 68.476562 256.101562 68.839844 255.621094 69.160156 C 255.140625 69.484375 254.632812 69.753906 254.097656 69.976562 C 253.5625 70.195312 253.011719 70.363281 252.445312 70.476562 C 251.878906 70.589844 251.308594 70.644531 250.726562 70.644531 C 250.148438 70.644531 249.578125 70.589844 249.011719 70.476562 C 248.441406 70.363281 247.894531 70.195312 247.359375 69.976562 C 246.824219 69.753906 246.316406 69.484375 245.835938 69.160156 C 245.355469 68.839844 244.910156 68.476562 244.5 68.066406 C 244.09375 67.65625 243.726562 67.210938 243.40625 66.730469 C 243.085938 66.25 242.8125 65.742188 242.59375 65.207031 C 242.371094 64.675781 242.203125 64.125 242.089844 63.554688 C 241.976562 62.988281 241.921875 62.414062 241.921875 61.835938 C 241.921875 61.257812 241.976562 60.6875 242.089844 60.117188 C 242.203125 59.550781 242.371094 59 242.59375 58.464844 C 242.8125 57.933594 243.085938 57.425781 243.40625 56.945312 C 243.726562 56.460938 244.09375 56.019531 244.5 55.609375 C 244.910156 55.199219 245.355469 54.835938 245.835938 54.511719 C 246.316406 54.191406 246.824219 53.921875 247.359375 53.699219 C 247.894531 53.476562 248.441406 53.3125 249.011719 53.199219 C 249.578125 53.085938 250.148438 53.027344 250.726562 53.027344 C 251.308594 53.027344 251.878906 53.085938 252.445312 53.199219 C 253.011719 53.3125 253.5625 53.476562 254.097656 53.699219 C 254.632812 53.921875 255.140625 54.191406 255.621094 54.511719 C 256.101562 54.835938 256.546875 55.199219 256.957031 55.609375 C 257.363281 56.019531 257.730469 56.460938 258.050781 56.945312 C 258.371094 57.425781 258.644531 57.933594 258.863281 58.464844 C 259.085938 59 259.253906 59.550781 259.367188 60.117188 C 259.476562 60.6875 259.535156 61.257812 259.535156 61.835938 Z M 259.535156 61.835938 " fill-opacity="1" fill-rule="nonzero"/><path fill="#f24d9a" d="M 273.046875 76.292969 C 273.046875 76.839844 272.992188 77.378906 272.886719 77.914062 C 272.78125 78.449219 272.621094 78.96875 272.414062 79.472656 C 272.203125 79.980469 271.949219 80.457031 271.644531 80.910156 C 271.34375 81.367188 270.996094 81.785156 270.613281 82.171875 C 270.226562 82.558594 269.804688 82.902344 269.351562 83.207031 C 268.898438 83.507812 268.417969 83.765625 267.914062 83.972656 C 267.410156 84.183594 266.890625 84.339844 266.355469 84.445312 C 265.820312 84.554688 265.28125 84.605469 264.734375 84.605469 C 264.1875 84.605469 263.648438 84.554688 263.113281 84.445312 C 262.578125 84.339844 262.058594 84.183594 261.554688 83.972656 C 261.050781 83.765625 260.570312 83.507812 260.117188 83.207031 C 259.664062 82.902344 259.242188 82.558594 258.855469 82.171875 C 258.472656 81.785156 258.125 81.367188 257.824219 80.910156 C 257.519531 80.457031 257.265625 79.980469 257.054688 79.472656 C 256.847656 78.96875 256.6875 78.449219 256.582031 77.914062 C 256.476562 77.378906 256.421875 76.839844 256.421875 76.292969 C 256.421875 75.746094 256.476562 75.207031 256.582031 74.671875 C 256.6875 74.136719 256.847656 73.617188 257.054688 73.109375 C 257.265625 72.605469 257.519531 72.128906 257.824219 71.671875 C 258.125 71.21875 258.472656 70.800781 258.855469 70.414062 C 259.242188 70.027344 259.664062 69.683594 260.117188 69.378906 C 260.570312 69.078125 261.050781 68.820312 261.554688 68.613281 C 262.058594 68.402344 262.578125 68.246094 263.113281 68.136719 C 263.648438 68.03125 264.1875 67.976562 264.734375 67.976562 C 265.28125 67.976562 265.820312 68.03125 266.355469 68.136719 C 266.890625 68.246094 267.410156 68.402344 267.914062 68.613281 C 268.417969 68.820312 268.898438 69.078125 269.351562 69.378906 C 269.804688 69.683594 270.226562 70.027344 270.613281 70.414062 C 270.996094 70.800781 271.34375 71.21875 271.644531 71.671875 C 271.949219 72.128906 272.203125 72.605469 272.414062 73.109375 C 272.621094 73.617188 272.78125 74.136719 272.886719 74.671875 C 272.992188 75.207031 273.046875 75.746094 273.046875 76.292969 Z M 273.046875 76.292969 " fill-opacity="1" fill-rule="nonzero"/><g clip-path="url(#d101180cdf)"><path fill="#f24d9a" d="M 278.625 93.929688 C 278.625 94.382812 278.582031 94.835938 278.492188 95.285156 C 278.402344 95.730469 278.269531 96.164062 278.097656 96.585938 C 277.921875 97.007812 277.707031 97.410156 277.453125 97.789062 C 277.199219 98.167969 276.914062 98.519531 276.589844 98.839844 C 276.269531 99.164062 275.917969 99.449219 275.539062 99.703125 C 275.160156 99.957031 274.757812 100.171875 274.335938 100.347656 C 273.914062 100.519531 273.480469 100.652344 273.035156 100.742188 C 272.585938 100.832031 272.136719 100.875 271.679688 100.875 C 271.222656 100.875 270.773438 100.832031 270.324219 100.742188 C 269.878906 100.652344 269.441406 100.519531 269.023438 100.347656 C 268.601562 100.171875 268.199219 99.957031 267.820312 99.703125 C 267.441406 99.449219 267.089844 99.164062 266.769531 98.839844 C 266.445312 98.519531 266.160156 98.167969 265.90625 97.789062 C 265.652344 97.410156 265.4375 97.007812 265.261719 96.585938 C 265.089844 96.164062 264.957031 95.730469 264.867188 95.285156 C 264.777344 94.835938 264.734375 94.382812 264.734375 93.929688 C 264.734375 93.472656 264.777344 93.019531 264.867188 92.574219 C 264.957031 92.125 265.089844 91.691406 265.261719 91.269531 C 265.4375 90.847656 265.652344 90.449219 265.90625 90.070312 C 266.160156 89.691406 266.445312 89.339844 266.769531 89.015625 C 267.089844 88.695312 267.441406 88.40625 267.820312 88.152344 C 268.199219 87.898438 268.601562 87.683594 269.023438 87.511719 C 269.441406 87.335938 269.878906 87.203125 270.324219 87.113281 C 270.773438 87.027344 271.222656 86.980469 271.679688 86.980469 C 272.136719 86.980469 272.585938 87.027344 273.035156 87.113281 C 273.480469 87.203125 273.914062 87.335938 274.335938 87.511719 C 274.757812 87.683594 275.160156 87.898438 275.539062 88.152344 C 275.917969 88.40625 276.269531 88.695312 276.589844 89.015625 C 276.914062 89.339844 277.199219 89.691406 277.453125 90.070312 C 277.707031 90.449219 277.921875 90.847656 278.097656 91.269531 C 278.269531 91.691406 278.402344 92.125 278.492188 92.574219 C 278.582031 93.019531 278.625 93.472656 278.625 93.929688 Z M 278.625 93.929688 " fill-opacity="1" fill-rule="nonzero"/></g><path fill="#9ce4fd" d="M 263.742188 212.691406 C 264.15625 211.054688 264.570312 209.4375 264.984375 207.800781 C 265.59375 205.414062 266.203125 203.027344 266.816406 200.621094 C 267.621094 197.445312 268.429688 194.289062 269.257812 191.113281 C 269.335938 190.777344 269.375 190.441406 269.511719 190.105469 C 269.789062 189.433594 270.300781 189.140625 271.007812 189.335938 C 271.953125 189.613281 272.898438 189.910156 273.84375 190.183594 C 275.832031 190.777344 277.824219 191.367188 279.8125 191.960938 C 281.425781 192.433594 283.019531 192.925781 284.636719 193.417969 C 286.917969 194.109375 289.203125 194.78125 291.488281 195.472656 C 292.867188 195.886719 294.246094 196.300781 295.644531 196.714844 C 296.3125 196.910156 296.960938 197.109375 297.632812 197.324219 C 298.378906 197.5625 298.675781 198.152344 298.4375 198.921875 C 297.535156 201.980469 296.628906 205.039062 295.722656 208.113281 C 294.992188 210.558594 294.265625 213.007812 293.535156 215.433594 C 292.609375 218.527344 291.703125 221.625 290.800781 224.703125 C 290.757812 224.820312 290.71875 224.941406 290.699219 225.078125 C 290.601562 225.769531 289.65625 226.183594 289.046875 225.984375 C 287.371094 225.453125 285.679688 224.941406 284.003906 224.425781 C 281.367188 223.617188 278.726562 222.789062 276.089844 221.960938 C 273.175781 221.054688 270.261719 220.167969 267.347656 219.257812 C 266.875 219.101562 266.402344 218.921875 265.910156 218.824219 C 265.75 218.390625 265.59375 217.976562 265.4375 217.542969 C 265.003906 216.359375 264.550781 215.15625 264.117188 213.953125 C 264 213.558594 263.761719 213.164062 263.742188 212.691406 Z M 284.734375 200.183594 C 284.832031 199.394531 284.085938 198.765625 283.394531 198.785156 C 282.726562 198.785156 282.3125 199.121094 282.015625 199.671875 C 281.484375 200.71875 281.128906 201.824219 280.699219 202.90625 C 280.324219 203.875 279.96875 204.859375 279.496094 205.765625 C 279.320312 206.101562 279.320312 206.101562 279.003906 205.945312 C 278.828125 205.867188 278.667969 205.765625 278.511719 205.667969 C 277.230469 204.761719 275.914062 203.894531 274.691406 202.90625 C 274.515625 202.75 274.316406 202.632812 274.082031 202.53125 C 273.390625 202.277344 272.507812 202.710938 272.367188 203.421875 C 272.269531 203.972656 272.328125 204.484375 272.761719 204.898438 C 273 205.136719 273.234375 205.351562 273.511719 205.53125 C 274.003906 205.847656 274.476562 206.183594 274.949219 206.515625 C 275.597656 206.96875 276.226562 207.484375 276.898438 207.917969 C 277.449219 208.273438 278.039062 208.609375 278.6875 208.746094 C 279.003906 208.824219 279.140625 208.941406 279.242188 209.21875 C 279.832031 210.855469 280.441406 212.492188 281.050781 214.128906 C 281.484375 215.273438 281.996094 216.398438 282.648438 217.445312 C 282.980469 217.996094 283.632812 218.253906 284.222656 218.074219 C 284.871094 217.878906 285.226562 217.347656 285.207031 216.636719 C 285.1875 216.378906 285.089844 216.183594 284.96875 215.964844 C 284.476562 215.019531 283.964844 214.070312 283.59375 213.066406 C 282.941406 211.347656 282.332031 209.613281 281.683594 207.898438 C 281.621094 207.71875 281.621094 207.582031 281.722656 207.40625 C 282.546875 205.90625 283.101562 204.308594 283.710938 202.710938 C 283.945312 202.097656 284.125 201.449219 284.515625 200.894531 C 284.675781 200.71875 284.753906 200.460938 284.734375 200.183594 Z M 284.734375 200.183594 " fill-opacity="1" fill-rule="nonzero"/><path fill="#fffefe" d="M 185.253906 211.804688 C 185.628906 211.921875 186.023438 211.980469 186.378906 212.117188 C 188.167969 212.789062 189.3125 214.464844 189.152344 216.28125 C 189.035156 217.679688 188.5625 218.945312 187.695312 220.066406 C 186.335938 221.824219 184.527344 222.886719 182.417969 223.539062 C 182.066406 223.636719 181.730469 223.738281 181.375 223.816406 C 181.199219 223.855469 181.039062 223.914062 180.902344 224.03125 C 180.117188 224.605469 179.03125 224.152344 178.796875 223.242188 C 178.679688 222.808594 178.578125 222.375 178.519531 221.960938 C 178.066406 219.476562 177.714844 216.953125 177.359375 214.445312 C 177.082031 212.53125 176.847656 210.601562 176.609375 208.6875 C 176.550781 208.195312 176.472656 207.71875 176.394531 207.246094 C 176.277344 206.597656 176.394531 206.023438 176.945312 205.589844 C 177.003906 205.550781 177.0625 205.492188 177.101562 205.433594 C 177.4375 204.839844 178.007812 204.5625 178.597656 204.347656 C 179.445312 204.050781 180.292969 203.753906 181.199219 203.753906 C 182.558594 203.753906 183.660156 204.347656 184.527344 205.371094 C 185.433594 206.4375 185.886719 207.699219 185.925781 209.101562 C 185.945312 209.871094 185.765625 210.601562 185.433594 211.289062 C 185.371094 211.46875 185.253906 211.605469 185.253906 211.804688 Z M 186.398438 216.121094 C 186.4375 215.492188 186.199219 215.058594 185.472656 214.742188 C 185.058594 214.566406 184.625 214.484375 184.171875 214.523438 C 182.890625 214.644531 181.671875 214.960938 180.546875 215.628906 C 180.390625 215.726562 180.332031 215.808594 180.371094 216.003906 C 180.449219 216.496094 180.507812 216.992188 180.589844 217.503906 C 180.746094 218.570312 180.921875 219.613281 181.101562 220.660156 C 181.160156 221.054688 181.179688 221.054688 181.554688 220.9375 C 182.753906 220.582031 183.855469 220.027344 184.800781 219.179688 C 185.726562 218.371094 186.296875 217.367188 186.398438 216.121094 Z M 179.976562 212.75 C 180.195312 212.710938 180.351562 212.613281 180.527344 212.492188 C 181.160156 212.078125 181.75 211.625 182.300781 211.074219 C 183.363281 209.988281 183.421875 208.785156 182.695312 207.542969 C 182.320312 206.890625 181.769531 206.457031 180.960938 206.554688 C 180.449219 206.636719 179.957031 206.792969 179.464844 206.992188 C 179.230469 207.089844 179.171875 207.226562 179.230469 207.464844 C 179.308594 207.820312 179.347656 208.175781 179.386719 208.527344 C 179.523438 209.613281 179.644531 210.679688 179.800781 211.765625 C 179.839844 212.097656 179.78125 212.433594 179.976562 212.75 Z M 179.976562 212.75 " fill-opacity="1" fill-rule="nonzero"/><path fill="#fffefe" d="M 221.605469 208.273438 C 221.605469 209.871094 221.664062 210.933594 221.585938 212 C 221.488281 213.363281 221.546875 214.703125 221.507812 216.0625 C 221.488281 216.832031 221.09375 217.324219 220.421875 217.5625 C 219.8125 217.78125 218.964844 217.285156 218.808594 216.695312 C 218.691406 216.261719 218.632812 215.808594 218.730469 215.332031 C 218.769531 215.175781 218.769531 215.019531 218.769531 214.859375 C 218.769531 213.519531 218.789062 212.179688 218.789062 210.835938 C 218.789062 210.34375 218.789062 210.34375 218.316406 210.144531 C 217.132812 209.652344 215.933594 209.257812 214.691406 209.003906 C 214.300781 208.921875 213.945312 208.765625 213.570312 208.648438 C 213.214844 208.546875 213.136719 208.566406 212.941406 208.863281 C 212.074219 210.105469 211.167969 211.308594 210.261719 212.511719 C 210.066406 212.789062 209.847656 213.046875 209.671875 213.363281 C 209.316406 214.011719 208.492188 214.308594 207.722656 213.855469 C 207.132812 213.519531 206.894531 212.710938 207.191406 212.039062 C 207.40625 211.546875 207.78125 211.152344 208.117188 210.738281 C 208.902344 209.75 209.652344 208.746094 210.359375 207.699219 C 211.304688 206.320312 212.328125 205.019531 213.335938 203.675781 C 214.199219 202.53125 215.105469 201.429688 216.03125 200.34375 C 216.78125 199.457031 217.566406 198.585938 218.53125 197.917969 C 219.242188 197.425781 219.8125 197.402344 220.460938 197.777344 C 220.972656 198.074219 221.152344 198.585938 221.230469 199.121094 C 221.367188 199.988281 221.445312 200.875 221.425781 201.742188 C 221.40625 202.730469 221.488281 203.695312 221.546875 204.664062 C 221.644531 206.082031 221.566406 207.445312 221.605469 208.273438 Z M 218.828125 207.34375 C 218.90625 207.226562 218.886719 207.109375 218.867188 206.992188 C 218.847656 206.339844 218.828125 205.667969 218.789062 205.019531 C 218.75 204.050781 218.613281 203.085938 218.671875 202.097656 C 218.671875 201.980469 218.730469 201.84375 218.570312 201.761719 C 218.316406 201.84375 218.21875 202.117188 218.058594 202.296875 C 217.035156 203.441406 216.089844 204.664062 215.164062 205.867188 C 214.929688 206.183594 214.929688 206.222656 215.304688 206.339844 C 215.363281 206.359375 215.421875 206.359375 215.480469 206.378906 C 216.464844 206.617188 217.449219 206.851562 218.414062 207.246094 C 218.53125 207.265625 218.652344 207.363281 218.828125 207.34375 Z M 218.828125 207.34375 " fill-opacity="1" fill-rule="nonzero"/><path fill="#fffefe" d="M 284.734375 200.183594 C 284.753906 200.460938 284.675781 200.71875 284.496094 200.953125 C 284.105469 201.507812 283.945312 202.136719 283.691406 202.769531 C 283.078125 204.347656 282.527344 205.964844 281.703125 207.464844 C 281.601562 207.621094 281.601562 207.757812 281.664062 207.957031 C 282.3125 209.671875 282.921875 211.410156 283.574219 213.125 C 283.945312 214.128906 284.457031 215.078125 284.949219 216.023438 C 285.050781 216.242188 285.167969 216.4375 285.1875 216.695312 C 285.226562 217.386719 284.871094 217.917969 284.203125 218.132812 C 283.613281 218.3125 282.960938 218.074219 282.628906 217.503906 C 281.996094 216.4375 281.464844 215.332031 281.03125 214.191406 C 280.421875 212.550781 279.8125 210.914062 279.21875 209.277344 C 279.121094 209.003906 278.984375 208.863281 278.667969 208.804688 C 278.019531 208.648438 277.449219 208.332031 276.878906 207.976562 C 276.207031 207.542969 275.578125 207.03125 274.929688 206.578125 C 274.457031 206.242188 273.984375 205.90625 273.492188 205.589844 C 273.214844 205.414062 272.976562 205.175781 272.742188 204.957031 C 272.308594 204.542969 272.25 204.011719 272.347656 203.480469 C 272.484375 202.769531 273.371094 202.335938 274.0625 202.59375 C 274.277344 202.671875 274.476562 202.808594 274.671875 202.964844 C 275.894531 203.953125 277.210938 204.820312 278.492188 205.726562 C 278.648438 205.828125 278.808594 205.925781 278.984375 206.003906 C 279.300781 206.160156 279.320312 206.160156 279.476562 205.828125 C 279.949219 204.898438 280.304688 203.933594 280.675781 202.964844 C 281.089844 201.882812 281.464844 200.777344 281.996094 199.730469 C 282.292969 199.179688 282.707031 198.84375 283.375 198.84375 C 284.085938 198.765625 284.832031 199.394531 284.734375 200.183594 Z M 284.734375 200.183594 " fill-opacity="1" fill-rule="nonzero"/><path fill="#fffefe" d="M 252.027344 212.59375 C 252.242188 212.632812 252.480469 212.671875 252.714844 212.671875 C 254.546875 212.769531 256.261719 214.683594 256.457031 216.535156 C 256.554688 217.464844 256.398438 218.351562 256.003906 219.199219 C 255.453125 220.402344 254.746094 221.488281 253.800781 222.414062 C 253.070312 223.125 252.242188 223.695312 251.339844 224.152344 C 250.785156 224.445312 250.253906 224.78125 249.625 224.921875 C 248.976562 225.058594 247.992188 224.605469 247.8125 223.972656 C 247.203125 221.921875 246.277344 219.988281 245.628906 217.957031 C 245.136719 216.476562 244.683594 215 244.210938 213.519531 C 243.914062 212.652344 243.597656 211.804688 243.34375 210.914062 C 243.167969 210.285156 243.125 209.632812 243.1875 209.003906 C 243.226562 208.449219 243.539062 208.015625 243.972656 207.699219 C 244.625 207.207031 245.3125 206.753906 246.140625 206.617188 C 246.730469 206.496094 247.339844 206.515625 247.929688 206.574219 C 248.542969 206.636719 249.132812 206.753906 249.722656 206.96875 C 250.90625 207.425781 251.691406 208.214844 252.027344 209.457031 C 252.28125 210.382812 252.324219 211.308594 252.085938 212.238281 C 252.027344 212.355469 251.988281 212.453125 252.027344 212.59375 Z M 252.203125 215.433594 C 252.007812 215.433594 251.8125 215.453125 251.59375 215.511719 C 250.453125 215.789062 249.429688 216.320312 248.34375 216.734375 C 248.207031 216.792969 248.148438 216.871094 248.207031 217.03125 C 248.246094 217.109375 248.265625 217.207031 248.304688 217.304688 C 248.816406 218.667969 249.347656 220.046875 249.859375 221.410156 C 249.980469 221.746094 250.039062 221.765625 250.332031 221.585938 C 251.160156 221.132812 251.910156 220.5625 252.480469 219.792969 C 253.011719 219.082031 253.523438 218.332031 253.699219 217.425781 C 253.898438 216.4375 253.148438 215.433594 252.203125 215.433594 Z M 247.359375 214.171875 C 247.792969 214.050781 248.03125 213.734375 248.324219 213.460938 C 249.171875 212.652344 249.546875 211.644531 249.410156 210.480469 C 249.367188 210.046875 249.171875 209.730469 248.757812 209.59375 C 248.34375 209.4375 247.910156 209.355469 247.480469 209.316406 C 247.28125 209.296875 247.066406 209.296875 246.867188 209.316406 C 246.515625 209.335938 246.21875 209.476562 245.980469 209.710938 C 245.804688 209.910156 246 210.167969 246.0625 210.382812 C 246.316406 211.449219 246.769531 212.453125 247.105469 213.519531 C 247.164062 213.695312 247.203125 213.933594 247.359375 214.171875 Z M 247.359375 214.171875 " fill-opacity="1" fill-rule="nonzero"/><path fill="#f2db51" d="M 303.480469 187.007812 C 302.335938 187.027344 301.3125 187.363281 300.40625 188.035156 C 299.796875 188.507812 299.523438 189.21875 299.265625 189.910156 C 298.910156 190.835938 298.578125 191.761719 298.222656 192.691406 C 298.105469 193.003906 297.945312 193.28125 297.671875 193.5 C 297.179688 193.914062 296.410156 193.972656 295.917969 193.539062 C 295.308594 192.984375 294.953125 192.296875 295.050781 191.449219 C 295.089844 191.035156 295.171875 190.597656 295.25 190.183594 C 295.386719 189.496094 295.425781 188.785156 295.425781 188.074219 C 295.445312 186.59375 294.992188 186.21875 293.652344 185.707031 C 293.417969 185.609375 293.160156 185.589844 292.90625 185.589844 C 292.570312 185.589844 292.257812 185.511719 291.960938 185.351562 C 291.804688 185.253906 291.625 185.136719 291.546875 184.976562 C 291.171875 184.328125 291.015625 183.636719 291.390625 182.90625 C 291.605469 182.511719 291.941406 182.253906 292.394531 182.214844 C 294.066406 182.039062 295.210938 181.074219 296.195312 179.828125 C 296.765625 179.101562 297.160156 178.25 297.492188 177.382812 C 297.671875 176.949219 297.847656 176.496094 298.046875 176.082031 C 298.457031 175.195312 299.421875 174.859375 300.210938 175.332031 C 300.722656 175.648438 301.058594 176.339844 300.941406 176.96875 C 300.644531 178.527344 300.902344 180.007812 301.371094 181.488281 C 301.746094 182.609375 302.476562 183.378906 303.65625 183.675781 C 303.933594 183.753906 304.207031 183.832031 304.484375 183.875 C 305.3125 184.03125 305.785156 184.664062 305.726562 185.492188 C 305.703125 185.84375 305.566406 186.140625 305.292969 186.359375 C 304.761719 186.773438 304.207031 187.128906 303.480469 187.007812 Z M 303.480469 187.007812 " fill-opacity="1" fill-rule="nonzero"/><g clip-path="url(#7b87f8c7c1)"><path fill="#f2db51" d="M 152.648438 238.410156 C 152.648438 237.328125 152.605469 236.242188 152.214844 235.195312 C 151.722656 233.875 150.914062 232.828125 149.652344 232.160156 C 149.320312 231.980469 148.984375 231.824219 148.628906 231.664062 C 148.039062 231.390625 147.625 230.898438 147.46875 230.265625 C 147.25 229.417969 147.960938 228.53125 148.867188 228.53125 C 149.457031 228.53125 150.027344 228.410156 150.597656 228.390625 C 151.128906 228.371094 151.542969 228.035156 151.957031 227.78125 C 153.472656 226.832031 154.476562 225.492188 155.167969 223.855469 C 155.324219 223.5 155.480469 223.125 155.660156 222.769531 C 155.992188 222.097656 156.664062 221.902344 157.136719 221.980469 C 157.824219 222.078125 158.355469 222.613281 158.476562 223.261719 C 158.574219 223.796875 158.535156 224.328125 158.535156 224.859375 C 158.554688 225.964844 158.886719 226.972656 159.460938 227.898438 C 160.109375 228.945312 161.054688 229.574219 162.296875 229.714844 C 162.550781 229.734375 162.828125 229.792969 163.082031 229.871094 C 163.753906 230.109375 164.164062 230.699219 164.125 231.351562 C 164.085938 232 163.613281 232.59375 162.925781 232.691406 C 162.511719 232.75 162.136719 232.910156 161.761719 233.066406 C 159.5 233.972656 157.945312 235.589844 157.039062 237.859375 C 156.820312 238.390625 156.644531 238.925781 156.464844 239.457031 C 156.347656 239.8125 156.230469 240.167969 156.011719 240.484375 C 155.621094 241.074219 155.007812 241.292969 154.320312 241.09375 C 154.164062 241.054688 154.023438 240.996094 153.867188 240.957031 C 153.078125 240.796875 152.648438 240.265625 152.625 239.457031 C 152.648438 239.140625 152.648438 238.785156 152.648438 238.410156 Z M 152.648438 238.410156 " fill-opacity="1" fill-rule="nonzero"/></g><path fill="#f2db51" d="M 202.1875 219.871094 C 202.464844 221.191406 202.761719 222.511719 203.035156 223.835938 C 203.113281 224.230469 203.214844 224.625 203.292969 225.039062 C 203.46875 225.886719 202.976562 226.753906 202.167969 227.109375 C 201.558594 227.367188 200.910156 227.464844 200.257812 227.621094 C 196.558594 228.53125 192.855469 229.417969 189.171875 230.304688 C 185.234375 231.25 181.296875 232.21875 177.359375 233.183594 C 176.214844 233.460938 175.074219 233.738281 173.914062 234.011719 C 173.363281 234.152344 172.828125 234.152344 172.316406 233.835938 C 172.21875 233.777344 172.121094 233.738281 172.023438 233.699219 C 171.292969 233.5 170.878906 233.007812 170.722656 232.277344 C 170.507812 231.351562 170.289062 230.441406 170.074219 229.515625 C 169.660156 227.679688 169.246094 225.867188 168.8125 224.03125 C 168.125 221.035156 167.433594 218.015625 166.726562 215 C 165.820312 211.113281 164.933594 207.226562 164.027344 203.359375 C 163.851562 202.59375 163.671875 201.824219 163.496094 201.054688 C 163.4375 200.816406 163.378906 200.558594 163.28125 200.324219 C 162.847656 199.277344 163.339844 198.214844 164.441406 197.898438 C 165.148438 197.699219 165.878906 197.542969 166.585938 197.382812 C 168.675781 196.890625 170.742188 196.378906 172.828125 195.867188 C 175.722656 195.175781 178.597656 194.464844 181.492188 193.773438 C 185.273438 192.847656 189.074219 191.941406 192.855469 191.011719 C 193.09375 190.953125 193.347656 190.914062 193.585938 190.855469 C 194.351562 190.679688 194.980469 190.953125 195.453125 191.546875 C 195.535156 191.625 195.574219 191.742188 195.652344 191.800781 C 196.164062 192.195312 196.320312 192.769531 196.460938 193.359375 C 196.992188 195.90625 197.542969 198.449219 198.09375 200.972656 C 198.367188 202.21875 198.625 203.460938 198.902344 204.722656 C 198.941406 204.878906 198.980469 205.019531 199.019531 205.175781 C 199.019531 205.214844 199.019531 205.234375 199.019531 205.273438 C 199.492188 207.386719 199.964844 209.515625 200.417969 211.625 C 201.007812 214.40625 201.597656 217.148438 202.1875 219.871094 Z M 185.253906 211.804688 C 185.234375 211.605469 185.371094 211.46875 185.433594 211.308594 C 185.765625 210.621094 185.945312 209.871094 185.925781 209.121094 C 185.886719 207.71875 185.433594 206.457031 184.527344 205.394531 C 183.660156 204.367188 182.578125 203.796875 181.199219 203.773438 C 180.273438 203.773438 179.425781 204.050781 178.597656 204.367188 C 178.007812 204.585938 177.4375 204.859375 177.101562 205.453125 C 177.0625 205.511719 177.003906 205.570312 176.945312 205.609375 C 176.394531 206.042969 176.277344 206.597656 176.394531 207.265625 C 176.492188 207.738281 176.550781 208.234375 176.609375 208.707031 C 176.847656 210.621094 177.082031 212.550781 177.359375 214.464844 C 177.714844 216.972656 178.066406 219.476562 178.519531 221.980469 C 178.597656 222.414062 178.699219 222.847656 178.796875 223.261719 C 179.03125 224.171875 180.117188 224.625 180.902344 224.050781 C 181.039062 223.953125 181.199219 223.875 181.375 223.835938 C 181.730469 223.757812 182.085938 223.65625 182.417969 223.558594 C 184.507812 222.90625 186.335938 221.84375 187.695312 220.085938 C 188.5625 218.984375 189.035156 217.699219 189.152344 216.300781 C 189.3125 214.484375 188.148438 212.789062 186.378906 212.136719 C 186.023438 211.980469 185.628906 211.921875 185.253906 211.804688 Z M 185.253906 211.804688 " fill-opacity="1" fill-rule="nonzero"/><path fill="#f2db51" d="M 186.398438 216.121094 C 186.296875 217.367188 185.726562 218.371094 184.820312 219.179688 C 183.875 220.027344 182.773438 220.582031 181.574219 220.9375 C 181.199219 221.035156 181.179688 221.054688 181.121094 220.660156 C 180.941406 219.613281 180.785156 218.550781 180.609375 217.503906 C 180.527344 217.011719 180.46875 216.496094 180.390625 216.003906 C 180.351562 215.808594 180.429688 215.726562 180.570312 215.628906 C 181.671875 214.960938 182.910156 214.644531 184.191406 214.523438 C 184.625 214.484375 185.078125 214.542969 185.492188 214.742188 C 186.199219 215.078125 186.4375 215.492188 186.398438 216.121094 Z M 186.398438 216.121094 " fill-opacity="1" fill-rule="nonzero"/><path fill="#f2db51" d="M 179.976562 212.75 C 179.78125 212.433594 179.839844 212.097656 179.800781 211.785156 C 179.644531 210.71875 179.523438 209.632812 179.386719 208.546875 C 179.347656 208.195312 179.308594 207.839844 179.230469 207.484375 C 179.191406 207.246094 179.230469 207.089844 179.464844 207.011719 C 179.957031 206.832031 180.449219 206.65625 180.960938 206.578125 C 181.769531 206.457031 182.320312 206.910156 182.695312 207.5625 C 183.421875 208.824219 183.363281 210.007812 182.300781 211.09375 C 181.769531 211.644531 181.179688 212.097656 180.527344 212.511719 C 180.351562 212.613281 180.175781 212.710938 179.976562 212.75 Z M 179.976562 212.75 " fill-opacity="1" fill-rule="nonzero"/><g clip-path="url(#954513f7d2)"><path fill="#fac2c1" d="M 308.441406 206.992188 C 308.441406 208.332031 307.675781 209.355469 306.316406 209.59375 C 305.351562 209.773438 304.542969 209.515625 303.816406 208.941406 C 303.222656 208.488281 302.910156 207.820312 302.910156 207.089844 C 302.910156 206.417969 303.105469 205.746094 303.539062 205.195312 C 303.914062 204.703125 304.425781 204.347656 305.054688 204.230469 C 305.152344 204.210938 305.234375 204.191406 305.332031 204.191406 C 305.765625 204.148438 306.21875 204.230469 306.628906 204.328125 C 307.574219 204.5625 308.066406 205.273438 308.34375 206.183594 C 308.421875 206.457031 308.5 206.753906 308.441406 206.992188 Z M 308.441406 206.992188 " fill-opacity="1" fill-rule="nonzero"/></g><path fill="#fac2c1" d="M 285.382812 173.773438 C 285.226562 172.667969 286.488281 171.625 287.707031 172.136719 C 288.355469 172.414062 288.710938 172.984375 288.789062 173.675781 C 288.828125 173.992188 288.847656 174.308594 288.730469 174.601562 C 288.417969 175.332031 287.90625 175.6875 287.136719 175.6875 C 286.40625 175.6875 285.777344 175.234375 285.523438 174.542969 C 285.402344 174.285156 285.382812 174.03125 285.382812 173.773438 Z M 285.382812 173.773438 " fill-opacity="1" fill-rule="nonzero"/><g clip-path="url(#338b98bde4)"><path fill="#fac2c1" d="M 174.957031 244.308594 C 173.480469 244.25 172.59375 243.183594 172.496094 241.960938 C 172.457031 241.449219 172.691406 241.015625 172.929688 240.582031 C 173.222656 240.027344 173.675781 239.652344 174.265625 239.476562 C 174.878906 239.300781 175.488281 239.199219 176.117188 239.378906 C 176.648438 239.535156 177.042969 239.871094 177.261719 240.363281 C 177.535156 240.9375 177.734375 241.546875 177.613281 242.21875 C 177.378906 243.617188 176.492188 243.992188 175.625 244.191406 C 175.390625 244.25 175.171875 244.347656 174.957031 244.308594 Z M 174.957031 244.308594 " fill-opacity="1" fill-rule="nonzero"/></g><path fill="#fac2c1" d="M 217.921875 235.945312 C 217.84375 235.214844 218.632812 234.191406 219.714844 234.171875 C 220.777344 234.152344 221.625 235.355469 221.605469 236.164062 C 221.585938 237.1875 220.757812 237.917969 219.753906 237.9375 C 218.671875 237.957031 217.863281 236.914062 217.921875 235.945312 Z M 217.921875 235.945312 " fill-opacity="1" fill-rule="nonzero"/><path fill="#fac2c1" d="M 202.1875 219.871094 C 201.597656 217.128906 201.027344 214.40625 200.417969 211.664062 C 199.964844 209.554688 199.492188 207.425781 199.019531 205.3125 C 199.019531 205.292969 199.019531 205.253906 199.019531 205.214844 C 199.175781 205.097656 199.234375 204.898438 199.292969 204.722656 C 200.0625 202.613281 200.8125 200.480469 201.578125 198.371094 C 202.542969 195.707031 203.507812 193.046875 204.472656 190.382812 C 205.042969 188.804688 205.617188 187.207031 206.1875 185.628906 C 206.34375 185.195312 206.441406 184.703125 206.816406 184.367188 C 207.230469 183.992188 207.664062 183.675781 208.195312 183.480469 C 208.550781 183.339844 208.941406 183.339844 209.316406 183.460938 C 213.550781 184.878906 217.804688 186.320312 222.039062 187.757812 C 224.007812 188.429688 225.996094 189.101562 227.984375 189.769531 C 229.953125 190.441406 231.902344 191.132812 233.871094 191.78125 C 234.71875 192.058594 235.566406 192.375 236.414062 192.652344 C 237.042969 192.847656 237.535156 193.203125 237.789062 193.835938 C 237.808594 193.894531 237.851562 193.953125 237.890625 193.992188 C 238.382812 194.644531 238.320312 195.332031 238.046875 196.042969 C 237.296875 198.015625 236.550781 199.988281 235.800781 201.960938 C 235.152344 203.675781 234.484375 205.394531 233.851562 207.109375 C 233.164062 208.960938 232.453125 210.816406 231.765625 212.671875 C 231.609375 213.085938 231.371094 213.5 231.351562 213.972656 C 231.074219 214.25 231.035156 214.644531 230.898438 214.980469 C 230.191406 216.851562 229.480469 218.707031 228.773438 220.582031 C 228.121094 222.296875 227.472656 224.03125 226.824219 225.75 C 226.664062 226.183594 226.488281 226.636719 226.332031 227.070312 C 226.152344 227.484375 225.917969 227.839844 225.523438 228.074219 C 225.089844 228.332031 224.617188 228.332031 224.144531 228.214844 C 222.410156 227.800781 220.816406 227.03125 219.164062 226.359375 C 217.566406 225.730469 215.972656 225.117188 214.398438 224.464844 C 211.601562 223.300781 208.726562 222.335938 205.910156 221.191406 C 204.886719 220.777344 203.84375 220.363281 202.800781 219.96875 C 202.582031 219.949219 202.386719 219.871094 202.1875 219.871094 Z M 221.605469 208.273438 C 221.566406 207.445312 221.644531 206.082031 221.546875 204.722656 C 221.464844 203.753906 221.386719 202.769531 221.425781 201.804688 C 221.445312 200.914062 221.367188 200.046875 221.230469 199.179688 C 221.152344 198.648438 220.953125 198.132812 220.460938 197.839844 C 219.8125 197.445312 219.242188 197.484375 218.53125 197.976562 C 217.566406 198.648438 216.78125 199.515625 216.03125 200.402344 C 215.105469 201.488281 214.199219 202.59375 213.335938 203.734375 C 212.328125 205.078125 211.304688 206.378906 210.359375 207.757812 C 209.652344 208.785156 208.882812 209.792969 208.117188 210.796875 C 207.78125 211.210938 207.40625 211.605469 207.191406 212.097656 C 206.894531 212.769531 207.132812 213.578125 207.722656 213.914062 C 208.511719 214.367188 209.316406 214.070312 209.671875 213.421875 C 209.847656 213.105469 210.046875 212.847656 210.261719 212.574219 C 211.167969 211.371094 212.074219 210.167969 212.941406 208.921875 C 213.136719 208.628906 213.234375 208.609375 213.570312 208.707031 C 213.945312 208.824219 214.320312 208.984375 214.691406 209.0625 C 215.953125 209.296875 217.15625 209.710938 218.316406 210.207031 C 218.769531 210.402344 218.789062 210.382812 218.789062 210.894531 C 218.789062 212.238281 218.789062 213.578125 218.769531 214.917969 C 218.769531 215.078125 218.769531 215.234375 218.730469 215.394531 C 218.632812 215.847656 218.691406 216.300781 218.808594 216.753906 C 218.984375 217.347656 219.8125 217.839844 220.421875 217.621094 C 221.09375 217.386719 221.488281 216.890625 221.507812 216.121094 C 221.546875 214.761719 221.507812 213.421875 221.585938 212.058594 C 221.664062 210.933594 221.605469 209.871094 221.605469 208.273438 Z M 221.605469 208.273438 " fill-opacity="1" fill-rule="nonzero"/><path fill="#fac2c1" d="M 218.828125 207.34375 C 218.671875 207.363281 218.550781 207.265625 218.414062 207.226562 C 217.46875 206.851562 216.484375 206.617188 215.480469 206.359375 C 215.421875 206.339844 215.363281 206.339844 215.304688 206.320312 C 214.929688 206.203125 214.929688 206.183594 215.164062 205.847656 C 216.089844 204.625 217.035156 203.402344 218.058594 202.277344 C 218.21875 202.097656 218.316406 201.84375 218.570312 201.742188 C 218.710938 201.824219 218.671875 201.980469 218.671875 202.078125 C 218.632812 203.066406 218.75 204.03125 218.789062 205 C 218.828125 205.648438 218.847656 206.320312 218.867188 206.96875 C 218.867188 207.109375 218.886719 207.226562 218.828125 207.34375 Z M 218.828125 207.34375 " fill-opacity="1" fill-rule="nonzero"/><path fill="#d2bbff" d="M 180.980469 181.25 C 180.863281 180.261719 181.472656 179.59375 182.28125 179.101562 C 183.128906 178.585938 184.035156 178.546875 184.921875 179.082031 C 185.925781 179.691406 186.378906 180.972656 185.886719 182.078125 C 185.589844 182.769531 185.117188 183.28125 184.449219 183.65625 C 183.050781 184.425781 180.921875 183.460938 180.980469 181.527344 C 180.980469 181.46875 180.980469 181.386719 180.980469 181.25 Z M 180.980469 181.25 " fill-opacity="1" fill-rule="nonzero"/><path fill="#d2bbff" d="M 263.742188 212.691406 C 263.761719 213.164062 264 213.558594 264.136719 213.992188 C 264.550781 215.195312 265.003906 216.378906 265.457031 217.582031 C 265.613281 218.015625 265.773438 218.429688 265.929688 218.863281 C 266.34375 220.027344 266.757812 221.210938 267.167969 222.375 C 267.289062 222.710938 267.367188 223.066406 267.25 223.441406 C 267.050781 224.050781 266.675781 224.503906 266.046875 224.664062 C 264.828125 225 263.683594 225.511719 262.503906 225.925781 C 261.222656 226.378906 259.980469 226.871094 258.703125 227.347656 C 256.695312 228.09375 254.707031 228.84375 252.695312 229.59375 C 251.277344 230.128906 249.839844 230.660156 248.402344 231.191406 C 246.632812 231.863281 244.839844 232.535156 243.066406 233.183594 C 242.457031 233.421875 241.828125 233.636719 241.21875 233.875 C 240.941406 233.972656 240.664062 234.011719 240.390625 234.011719 C 239.699219 234.011719 239.226562 233.699219 238.914062 233.105469 C 238.816406 232.910156 238.695312 232.730469 238.539062 232.554688 C 238.34375 232.355469 238.242188 232.101562 238.144531 231.863281 C 237.691406 230.699219 237.238281 229.535156 236.804688 228.390625 C 235.820312 225.808594 234.816406 223.222656 233.8125 220.640625 C 232.984375 218.488281 232.179688 216.359375 231.351562 214.210938 C 231.332031 214.152344 231.3125 214.089844 231.292969 214.03125 C 231.292969 213.558594 231.527344 213.164062 231.707031 212.730469 C 232.414062 210.875 233.105469 209.023438 233.792969 207.167969 C 234.421875 205.453125 235.09375 203.734375 235.742188 202.019531 C 236.15625 201.960938 236.550781 201.761719 236.945312 201.625 C 239.78125 200.578125 242.59375 199.515625 245.410156 198.449219 C 247.242188 197.757812 249.074219 197.109375 250.886719 196.4375 C 252.085938 196.003906 253.269531 195.550781 254.46875 195.097656 C 254.863281 194.957031 255.238281 194.859375 255.652344 194.996094 C 255.828125 195.058594 256.023438 195.078125 256.203125 195.117188 C 256.929688 195.273438 257.441406 195.6875 257.699219 196.398438 C 258.546875 198.746094 259.410156 201.09375 260.257812 203.441406 C 260.949219 205.332031 261.636719 207.226562 262.324219 209.121094 C 262.699219 210.167969 263.09375 211.210938 263.46875 212.277344 C 263.585938 212.414062 263.605469 212.59375 263.742188 212.691406 Z M 252.027344 212.59375 C 251.96875 212.453125 252.027344 212.355469 252.046875 212.257812 C 252.261719 211.308594 252.242188 210.402344 251.988281 209.476562 C 251.652344 208.234375 250.867188 207.445312 249.683594 206.992188 C 249.113281 206.773438 248.503906 206.636719 247.890625 206.597656 C 247.300781 206.535156 246.710938 206.515625 246.101562 206.636719 C 245.273438 206.792969 244.585938 207.246094 243.933594 207.71875 C 243.5 208.035156 243.1875 208.46875 243.148438 209.023438 C 243.105469 209.652344 243.125 210.304688 243.304688 210.933594 C 243.558594 211.824219 243.875 212.671875 244.171875 213.539062 C 244.664062 215.019531 245.117188 216.496094 245.609375 217.976562 C 246.277344 220.007812 247.203125 221.941406 247.792969 223.992188 C 247.972656 224.625 248.976562 225.097656 249.605469 224.941406 C 250.234375 224.800781 250.765625 224.445312 251.316406 224.171875 C 252.222656 223.71875 253.050781 223.144531 253.78125 222.433594 C 254.726562 221.507812 255.433594 220.421875 255.984375 219.21875 C 256.378906 218.371094 256.535156 217.484375 256.4375 216.558594 C 256.242188 214.683594 254.527344 212.789062 252.695312 212.691406 C 252.5 212.652344 252.261719 212.632812 252.027344 212.59375 Z M 252.027344 212.59375 " fill-opacity="1" fill-rule="nonzero"/><path fill="#d2bbff" d="M 252.203125 215.433594 C 253.148438 215.433594 253.898438 216.4375 253.699219 217.40625 C 253.503906 218.3125 253.011719 219.0625 252.480469 219.773438 C 251.910156 220.542969 251.160156 221.113281 250.332031 221.566406 C 250.039062 221.726562 250 221.726562 249.859375 221.390625 C 249.347656 220.027344 248.816406 218.648438 248.304688 217.285156 C 248.265625 217.1875 248.246094 217.109375 248.207031 217.011719 C 248.148438 216.851562 248.207031 216.773438 248.34375 216.714844 C 249.429688 216.300781 250.472656 215.769531 251.59375 215.492188 C 251.8125 215.453125 252.007812 215.453125 252.203125 215.433594 Z M 252.203125 215.433594 " fill-opacity="1" fill-rule="nonzero"/><path fill="#d2bbff" d="M 247.359375 214.171875 C 247.203125 213.933594 247.164062 213.695312 247.105469 213.480469 C 246.789062 212.433594 246.316406 211.429688 246.0625 210.34375 C 246 210.125 245.804688 209.871094 245.980469 209.671875 C 246.199219 209.4375 246.515625 209.296875 246.867188 209.277344 C 247.066406 209.277344 247.28125 209.257812 247.480469 209.277344 C 247.910156 209.316406 248.34375 209.398438 248.757812 209.554688 C 249.171875 209.710938 249.367188 210.027344 249.410156 210.441406 C 249.546875 211.625 249.171875 212.613281 248.324219 213.421875 C 248.03125 213.734375 247.773438 214.050781 247.359375 214.171875 Z M 247.359375 214.171875 " fill-opacity="1" fill-rule="nonzero"/><g fill="#ef2f7f" fill-opacity="1"><g transform="translate(52.770932, 311.654642)"><g><path d="M 27.46875 -1.765625 C 33.617188 -6.734375 23.21875 -20.535156 18.378906 -23.347656 C 21.972656 -25.441406 35.578125 -31.523438 31.71875 -37.867188 C 28.054688 -44.015625 12.296875 -27.859375 10.332031 -25.769531 C 11.378906 -29.496094 14.0625 -45.191406 5.230469 -42.574219 C 1.4375 -41.464844 1.570312 -36.625 1.570312 -33.484375 C 1.636719 -29.167969 1.570312 -24.785156 1.503906 -20.46875 C 1.4375 -16.480469 -1.375 -0.195312 6.539062 -1.832031 C 9.546875 -2.417969 10.398438 -6.34375 10.726562 -8.828125 C 10.921875 -10.53125 9.679688 -18.246094 10.464844 -18.703125 C 13.078125 -13.015625 17.917969 5.820312 27.46875 -1.765625 Z M 27.46875 -1.765625 "/></g></g></g><g fill="#ef2f7f" fill-opacity="1"><g transform="translate(86.1184, 311.654642)"><g><path d="M 1.636719 -31.066406 C 4.121094 -26.550781 9.613281 -30.933594 6.734375 -35.121094 C 3.859375 -39.371094 -0.390625 -34.859375 1.636719 -31.066406 Z M 6.410156 -0.71875 C 8.175781 -1.960938 8.109375 -5.429688 8.4375 -7.257812 C 8.960938 -10.855469 9.285156 -14.324219 8.894531 -17.917969 C 8.632812 -20.601562 7.980469 -31.066406 2.878906 -26.160156 C 1.046875 -24.460938 1.4375 -20.863281 1.308594 -18.507812 C 1.113281 -15.566406 0.914062 -12.492188 1.046875 -9.546875 C 1.175781 -7.324219 1.375 2.746094 6.410156 -0.71875 Z M 6.410156 -0.71875 "/></g></g></g><g fill="#ef2f7f" fill-opacity="1"><g transform="translate(96.188021, 311.654642)"><g><path d="M 19.097656 -0.128906 C 20.992188 -0.914062 20.929688 -3.726562 21.058594 -5.363281 C 21.710938 -10.726562 21.515625 -16.152344 21.453125 -21.515625 C 21.386719 -26.488281 21.386719 -31.457031 21.320312 -36.429688 C 21.320312 -39.371094 19.421875 -46.761719 14.976562 -42.707031 C 11.640625 -39.699219 14.257812 -32.960938 12.882812 -29.234375 C 12.035156 -27.074219 8.960938 -26.617188 7.128906 -24.851562 C 4.121094 -21.972656 1.765625 -18.050781 1.113281 -13.929688 C -0.128906 -6.082031 7.390625 3.203125 15.367188 -2.878906 C 15.761719 -1.308594 17.199219 0.589844 19.097656 -0.128906 Z M 9.679688 -12.035156 C 7.71875 -15.042969 10.070312 -19.75 12.492188 -21.648438 C 12.558594 -19.164062 13.539062 -16.089844 13.144531 -13.734375 C 12.949219 -12.492188 11.050781 -10.007812 9.679688 -12.035156 Z M 9.679688 -12.035156 "/></g></g></g><g fill="#ef2f7f" fill-opacity="1"><g transform="translate(118.681227, 311.654642)"><g><path d="M 9.546875 3.140625 C 14.125 1.4375 18.378906 -2.15625 19.882812 -6.933594 C 20.601562 -9.15625 20.601562 -11.574219 19.359375 -13.667969 C 18.179688 -15.628906 14.714844 -17.003906 14.910156 -19.683594 C 15.304688 -24.917969 27.859375 -24.460938 25.375 -31 C 23.9375 -34.921875 18.378906 -33.878906 15.367188 -32.960938 C 11.183594 -31.652344 7.128906 -29.300781 6.082031 -24.722656 C 5.363281 -21.84375 6.277344 -19.164062 8.242188 -17.070312 C 9.941406 -15.304688 12.164062 -14.125 11.050781 -11.25 C 9.484375 -7.128906 3.792969 -6.734375 1.175781 -3.464844 C -0.457031 -1.375 -0.390625 0.785156 1.699219 2.679688 C 3.792969 4.644531 7.0625 4.054688 9.546875 3.140625 Z M 9.546875 3.140625 "/></g></g></g><g fill="#ef2f7f" fill-opacity="1"><g transform="translate(145.359214, 311.654642)"><g/></g></g><g fill="#ef2f7f" fill-opacity="1"><g transform="translate(161.706006, 311.654642)"><g><path d="M 10.921875 -0.390625 C 17.65625 0.652344 26.027344 0.0664062 29.039062 -7.128906 C 30.410156 -10.464844 30.28125 -14.519531 28.777344 -17.722656 C 27.011719 -21.582031 23.542969 -23.085938 20.535156 -25.703125 C 12.492188 -32.503906 20.929688 -38.976562 27.992188 -41.203125 C 31.980469 -42.511719 30.605469 -46.761719 27.925781 -48.460938 C 24.722656 -50.488281 20.144531 -50.097656 16.675781 -49.050781 C 9.546875 -47.023438 4.121094 -41.203125 3.074219 -33.746094 C 2.027344 -26.226562 5.296875 -20.863281 11.902344 -17.65625 C 14.324219 -16.480469 18.640625 -14.191406 16.546875 -10.789062 C 14.0625 -6.671875 9.222656 -10.726562 6.015625 -10.726562 C 2.222656 -10.789062 -0.589844 -7.71875 1.898438 -4.121094 C 3.726562 -1.503906 7.980469 -0.914062 10.921875 -0.390625 Z M 10.921875 -0.390625 "/></g></g></g><g fill="#ef2f7f" fill-opacity="1"><g transform="translate(193.157249, 311.654642)"><g><path d="M 17.332031 4.644531 C 19.816406 2.679688 20.011719 -2.550781 20.40625 -5.429688 C 21.253906 -13.144531 21.515625 -20.992188 21.515625 -28.710938 L 21.515625 -31 C 22.105469 -32.242188 21.320312 -31.390625 22.890625 -31.851562 L 28.253906 -32.503906 C 30.410156 -32.960938 34.792969 -34.140625 33.941406 -37.210938 C 33.417969 -39.175781 31.128906 -40.351562 29.363281 -41.003906 C 27.273438 -41.789062 27.011719 -41.789062 23.085938 -42.050781 C 20.992188 -42.183594 21.515625 -41.988281 20.863281 -43.554688 C 19.882812 -45.976562 18.703125 -57.683594 14.386719 -53.433594 C 12.359375 -51.730469 11.835938 -48.722656 11.378906 -46.367188 C 11.183594 -45.257812 11.3125 -43.164062 10.726562 -42.25 L 6.996094 -41.070312 C 4.96875 -40.875 2.289062 -40.613281 0.914062 -38.976562 C -0.914062 -36.820312 0.195312 -34.660156 2.417969 -33.617188 C 3.597656 -33.09375 5.035156 -32.894531 6.34375 -32.699219 L 9.15625 -32.242188 C 10.855469 -31.066406 9.746094 -25.246094 10.007812 -20.992188 C 10.269531 -14.648438 10.789062 -8.175781 11.835938 -1.898438 C 12.296875 0.71875 13.472656 7.71875 17.332031 4.644531 Z M 17.332031 4.644531 "/></g></g></g><g fill="#ef2f7f" fill-opacity="1"><g transform="translate(227.22397, 311.654642)"><g><path d="M 18.441406 -2.355469 C 24.722656 -7.257812 25.375 -17.394531 22.5625 -24.328125 C 22.171875 -32.4375 11.640625 -32.832031 6.671875 -28.710938 C 0.980469 -23.9375 -0.128906 -15.105469 1.898438 -8.304688 C 4.1875 -0.914062 11.902344 2.679688 18.441406 -2.355469 Z M 15.957031 -11.183594 C 13.472656 -10.59375 13.863281 -13.40625 15.566406 -16.808594 C 15.957031 -17.65625 16.742188 -18.574219 17.527344 -19.226562 C 17.65625 -18.117188 17.917969 -11.640625 15.957031 -11.183594 Z M 15.957031 -11.183594 "/></g></g></g><g fill="#ef2f7f" fill-opacity="1"><g transform="translate(252.332654, 311.654642)"><g><path d="M 3.664062 -2.289062 C 6.277344 2.15625 9.484375 -0.523438 10.136719 -4.511719 C 10.59375 -7.257812 10.59375 -10.136719 11.117188 -12.949219 C 11.574219 -15.433594 12.621094 -17.789062 13.929688 -20.011719 C 15.761719 -23.085938 18.246094 -25.898438 21.710938 -23.347656 C 23.152344 -22.300781 24 -20.667969 26.027344 -20.730469 C 28.1875 -20.863281 29.101562 -22.824219 28.90625 -24.851562 C 28.449219 -28.578125 25.308594 -32.894531 21.582031 -33.8125 C 17.199219 -34.859375 13.863281 -31.390625 11.773438 -27.925781 C 11.3125 -30.476562 9.546875 -36.230469 5.820312 -34.660156 C 3.597656 -33.746094 2.878906 -29.886719 2.484375 -27.859375 C 0.980469 -20.207031 -0.390625 -9.285156 3.664062 -2.289062 Z M 3.664062 -2.289062 "/></g></g></g><g fill="#ef2f7f" fill-opacity="1"><g transform="translate(281.887672, 311.654642)"><g><path d="M 8.761719 -2.941406 C 12.492188 -2.289062 16.808594 -3.402344 19.554688 -6.148438 C 21.84375 -8.4375 22.957031 -16.480469 17.460938 -14.125 C 16.089844 -13.539062 9.023438 -6.34375 9.351562 -12.230469 C 9.546875 -15.628906 12.558594 -14.910156 14.910156 -15.367188 C 17.265625 -15.828125 19.945312 -16.546875 21.582031 -18.378906 C 25.113281 -22.367188 21.582031 -27.925781 17.199219 -29.234375 C 13.015625 -30.476562 8.175781 -28.710938 5.296875 -25.636719 C -0.457031 -19.554688 -1.570312 -4.773438 8.761719 -2.941406 Z M 13.078125 -19.488281 C 13.800781 -21.058594 15.304688 -21.777344 16.9375 -21.515625 C 17.527344 -20.144531 14.386719 -19.03125 13.078125 -19.488281 Z M 13.078125 -19.488281 "/></g></g></g><g fill="#ef2f7f" fill-opacity="1"><g transform="translate(305.873609, 311.654642)"><g/></g></g></svg>